#VRML V2.0 utf8

PROTO Gantry_part [
  field SFRotation rot_G 0 0 0 0
  field SFVec3f trans_G 0 0 0
]
{
  Transform {
    translation IS trans_G
    scale 0.01 0.01 0.0222
    rotation IS rot_G
    children Shape {
      appearance Appearance {
        material DEF Gantry_Mat Material {
          specularColor 0.18 0.07 0.05
          shininess 0.01
          emissiveColor 0.04 0 0.01
          diffuseColor 0.65 0 0.18
          ambientIntensity 0.0467
        }
      }
      geometry IndexedFaceSet {
        solid FALSE
        coordIndex [
          1, 2, 3, -1, 
          2, 0, 3, -1, 
          7, 5, 4, -1, 
          4, 6, 7, -1, 
          9, 8, 22, -1, 
          11, 9, 25, -1, 
          8, 12, 13, -1, 
          13, 14, 21, -1, 
          14, 15, 16, -1, 
          16, 10, 21, -1, 
          10, 17, 18, -1, 
          18, 19, 20, -1, 
          20, 21, 10, -1, 
          21, 22, 13, -1, 
          22, 23, 9, -1, 
          23, 24, 25, -1, 
          22, 8, 13, -1, 
          25, 9, 23, -1, 
          21, 14, 16, -1, 
          10, 18, 20, -1, 
          27, 26, 28, -1, 
          29, 27, 28, -1, 
          31, 30, 32, -1, 
          33, 31, 32, -1, 
          36, 35, 34, -1, 
          34, 37, 36, -1, 
          39, 38, 41, -1, 
          40, 39, 41, -1, 
          43, 42, 44, -1, 
          45, 43, 44, -1, 
          47, 46, 54, -1, 
          49, 47, 63, -1, 
          46, 50, 51, -1, 
          51, 52, 53, -1, 
          53, 54, 46, -1, 
          54, 55, 62, -1, 
          55, 56, 60, -1, 
          56, 57, 58, -1, 
          58, 59, 60, -1, 
          60, 48, 55, -1, 
          48, 61, 62, -1, 
          62, 63, 54, -1, 
          47, 54, 63, -1, 
          46, 51, 53, -1, 
          62, 55, 48, -1, 
          60, 56, 58, -1, 
          65, 64, 70, -1, 
          66, 65, 71, -1, 
          64, 68, 69, -1, 
          67, 73, 72, -1, 
          69, 70, 64, -1, 
          70, 71, 65, -1, 
          71, 72, 73, -1, 
          73, 66, 71, -1, 
          75, 76, 77, -1, 
          74, 77, 76, -1, 
          80, 81, 83, -1, 
          82, 79, 84, -1, 
          78, 85, 83, -1, 
          79, 78, 84, -1, 
          83, 84, 78, -1, 
          85, 80, 83, -1, 
          88, 87, 89, -1, 
          87, 88, 86, -1, 
          94, 90, 95, -1, 
          91, 94, 95, -1, 
          92, 93, 95, -1, 
          93, 91, 95, -1, 
          100, 99, 101, -1, 
          98, 100, 101, -1, 
          97, 96, 101, -1, 
          99, 97, 101, -1, 
          102, 104, 103, -1, 
          105, 106, 107, -1, 
          109, 108, 111, -1, 
          110, 111, 108, -1, 
          113, 112, 114, -1, 
          114, 115, 113, -1, 
          117, 116, 122, -1, 
          119, 120, 122, -1, 
          118, 119, 122, -1, 
          120, 121, 122, -1, 
          116, 118, 122, -1, 
          124, 125, 129, -1, 
          126, 123, 129, -1, 
          127, 126, 129, -1, 
          128, 127, 129, -1, 
          123, 124, 129, -1, 
          132, 130, 131, -1, 
          135, 134, 133, -1, 
          137, 136, 138, -1, 
          138, 139, 137, -1, 
          141, 142, 143, -1, 
          142, 140, 143, -1, 
          147, 145, 144, -1, 
          144, 146, 147, -1, 
          152, 149, 165, -1, 
          151, 153, 158, -1, 
          149, 148, 162, -1, 
          148, 154, 155, -1, 
          155, 156, 161, -1, 
          156, 157, 150, -1, 
          150, 151, 161, -1, 
          158, 159, 160, -1, 
          160, 161, 151, -1, 
          161, 162, 155, -1, 
          162, 163, 149, -1, 
          163, 164, 165, -1, 
          165, 149, 163, -1, 
          151, 158, 160, -1, 
          162, 148, 155, -1, 
          161, 156, 150, -1, 
          169, 167, 166, -1, 
          166, 168, 169, -1, 
          173, 171, 170, -1, 
          170, 172, 173, -1, 
          177, 175, 174, -1, 
          174, 176, 177, -1, 
          181, 179, 178, -1, 
          178, 180, 181, -1, 
          185, 183, 182, -1, 
          182, 184, 185, -1, 
          190, 187, 193, -1, 
          189, 191, 192, -1, 
          187, 186, 198, -1, 
          192, 193, 198, -1, 
          186, 194, 195, -1, 
          195, 196, 197, -1, 
          197, 198, 186, -1, 
          198, 199, 192, -1, 
          199, 200, 188, -1, 
          200, 201, 202, -1, 
          202, 203, 188, -1, 
          188, 189, 199, -1, 
          193, 187, 198, -1, 
          189, 192, 199, -1, 
          186, 195, 197, -1, 
          188, 200, 202, -1, 
          205, 204, 210, -1, 
          206, 205, 211, -1, 
          204, 208, 209, -1, 
          207, 213, 212, -1, 
          209, 210, 204, -1, 
          210, 211, 205, -1, 
          211, 212, 213, -1, 
          213, 206, 211, -1, 
          215, 216, 217, -1, 
          214, 217, 216, -1, 
          220, 221, 223, -1, 
          222, 219, 224, -1, 
          218, 225, 223, -1, 
          219, 218, 224, -1, 
          223, 224, 218, -1, 
          225, 220, 223, -1, 
          229, 231, 227, -1, 
          227, 231, 226, -1, 
          226, 230, 228, -1, 
          230, 226, 231, -1, 
          235, 236, 233, -1, 
          237, 234, 232, -1, 
          234, 236, 235, -1, 
          236, 234, 237, -1, 
          240, 239, 241, -1, 
          239, 240, 238, -1, 
          245, 243, 247, -1, 
          246, 242, 247, -1, 
          243, 246, 247, -1, 
          244, 245, 247, -1, 
          251, 249, 253, -1, 
          252, 251, 253, -1, 
          250, 252, 253, -1, 
          249, 248, 253, -1, 
          254, 256, 255, -1, 
          257, 258, 259, -1, 
          261, 260, 263, -1, 
          262, 263, 260, -1, 
          266, 265, 267, -1, 
          265, 266, 264, -1, 
          269, 268, 270, -1, 
          270, 271, 269, -1, 
          273, 272, 278, -1, 
          275, 276, 278, -1, 
          274, 275, 278, -1, 
          276, 277, 278, -1, 
          272, 274, 278, -1, 
          280, 281, 285, -1, 
          282, 279, 285, -1, 
          283, 282, 285, -1, 
          284, 283, 285, -1, 
          279, 280, 285, -1, 
          288, 286, 287, -1, 
          291, 290, 289, -1, 
          293, 292, 294, -1, 
          294, 295, 293, -1, 
          297, 298, 299, -1, 
          298, 296, 299, -1, 
          304, 305, 300, -1, 
          305, 303, 301, -1, 
          301, 300, 305, -1, 
          300, 302, 304, -1, 
          309, 307, 306, -1, 
          306, 308, 309, -1, 
          313, 314, 317, -1, 
          315, 311, 324, -1, 
          311, 310, 321, -1, 
          316, 312, 327, -1, 
          312, 313, 320, -1, 
          317, 318, 319, -1, 
          319, 320, 313, -1, 
          320, 321, 326, -1, 
          321, 322, 311, -1, 
          322, 323, 324, -1, 
          310, 325, 326, -1, 
          326, 327, 320, -1, 
          313, 317, 319, -1, 
          324, 311, 322, -1, 
          321, 310, 326, -1, 
          327, 312, 320, -1, 
          331, 329, 328, -1, 
          328, 330, 331, -1, 
          335, 333, 332, -1, 
          332, 334, 335, -1, 
          340, 341, 339, -1, 
          341, 336, 338, -1, 
          338, 339, 341, -1, 
          339, 337, 340, -1, 
          345, 343, 342, -1, 
          342, 344, 345, -1, 
          349, 347, 346, -1, 
          346, 348, 349, -1, 
          353, 351, 350, -1, 
          350, 352, 353, -1, 
          357, 358, 361, -1, 
          359, 355, 362, -1, 
          355, 354, 367, -1, 
          360, 356, 371, -1, 
          356, 357, 368, -1, 
          361, 362, 367, -1, 
          354, 363, 364, -1, 
          364, 365, 366, -1, 
          366, 367, 354, -1, 
          367, 368, 361, -1, 
          368, 369, 356, -1, 
          369, 370, 371, -1, 
          357, 361, 368, -1, 
          362, 355, 367, -1, 
          371, 356, 369, -1, 
          354, 364, 366, -1, 
          373, 372, 378, -1, 
          374, 373, 379, -1, 
          372, 376, 377, -1, 
          375, 381, 380, -1, 
          377, 378, 372, -1, 
          378, 379, 373, -1, 
          379, 380, 381, -1, 
          381, 374, 379, -1, 
          383, 384, 385, -1, 
          382, 385, 384, -1, 
          388, 389, 391, -1, 
          390, 387, 392, -1, 
          386, 393, 391, -1, 
          387, 386, 392, -1, 
          391, 392, 386, -1, 
          393, 388, 391, -1, 
          396, 395, 397, -1, 
          395, 396, 394, -1, 
          399, 398, 400, -1, 
          400, 401, 399, -1, 
          406, 402, 407, -1, 
          403, 406, 407, -1, 
          404, 405, 407, -1, 
          405, 403, 407, -1, 
          412, 411, 413, -1, 
          410, 412, 413, -1, 
          409, 408, 413, -1, 
          411, 409, 413, -1, 
          414, 416, 415, -1, 
          417, 418, 419, -1, 
          421, 420, 423, -1, 
          422, 423, 420, -1, 
          425, 424, 426, -1, 
          426, 427, 425, -1, 
          429, 428, 434, -1, 
          431, 432, 434, -1, 
          430, 431, 434, -1, 
          432, 433, 434, -1, 
          428, 430, 434, -1, 
          436, 437, 441, -1, 
          438, 435, 441, -1, 
          439, 438, 441, -1, 
          440, 439, 441, -1, 
          435, 436, 441, -1, 
          444, 442, 443, -1, 
          447, 446, 445, -1, 
          449, 448, 450, -1, 
          450, 451, 449, -1, 
          453, 454, 455, -1, 
          454, 452, 455, -1, 
          456, 458, 459, -1, 
          459, 457, 456, -1, 
          460, 464, 468, -1, 
          465, 462, 469, -1, 
          463, 466, 470, -1, 
          467, 461, 477, -1, 
          461, 460, 474, -1, 
          468, 469, 473, -1, 
          462, 463, 473, -1, 
          470, 471, 472, -1, 
          472, 473, 463, -1, 
          473, 474, 468, -1, 
          474, 475, 461, -1, 
          475, 476, 477, -1, 
          460, 468, 474, -1, 
          469, 462, 473, -1, 
          463, 470, 472, -1, 
          477, 461, 475, -1, 
          478, 480, 481, -1, 
          481, 479, 478, -1, 
          482, 484, 485, -1, 
          485, 483, 482, -1, 
          486, 488, 489, -1, 
          489, 487, 486, -1, 
          490, 492, 493, -1, 
          493, 491, 490, -1, 
          494, 496, 497, -1, 
          497, 495, 494, -1, 
          498, 502, 506, -1, 
          503, 500, 513, -1, 
          501, 504, 514, -1, 
          505, 499, 515, -1, 
          499, 498, 509, -1, 
          506, 507, 508, -1, 
          508, 509, 498, -1, 
          509, 510, 514, -1, 
          510, 511, 500, -1, 
          511, 512, 513, -1, 
          500, 501, 510, -1, 
          514, 515, 509, -1, 
          498, 506, 508, -1, 
          513, 500, 511, -1, 
          501, 514, 510, -1, 
          515, 499, 509, -1, 
          517, 516, 522, -1, 
          518, 517, 523, -1, 
          516, 520, 521, -1, 
          519, 525, 524, -1, 
          521, 522, 516, -1, 
          522, 523, 517, -1, 
          523, 524, 525, -1, 
          525, 518, 523, -1, 
          527, 528, 529, -1, 
          526, 529, 528, -1, 
          532, 533, 535, -1, 
          534, 531, 536, -1, 
          530, 537, 535, -1, 
          531, 530, 536, -1, 
          535, 536, 530, -1, 
          537, 532, 535, -1, 
          540, 539, 541, -1, 
          539, 540, 538, -1, 
          545, 543, 547, -1, 
          546, 542, 547, -1, 
          543, 546, 547, -1, 
          544, 545, 547, -1, 
          551, 549, 553, -1, 
          552, 551, 553, -1, 
          550, 552, 553, -1, 
          549, 548, 553, -1, 
          554, 556, 555, -1, 
          557, 558, 559, -1, 
          561, 560, 563, -1, 
          562, 563, 560, -1, 
          565, 564, 566, -1, 
          566, 567, 565, -1, 
          568, 570, 574, -1, 
          569, 568, 574, -1, 
          571, 572, 574, -1, 
          570, 571, 574, -1, 
          572, 573, 574, -1, 
          575, 576, 581, -1, 
          576, 577, 581, -1, 
          578, 575, 581, -1, 
          579, 578, 581, -1, 
          580, 579, 581, -1, 
          584, 582, 583, -1, 
          587, 586, 585, -1, 
          589, 588, 590, -1, 
          590, 591, 589, -1 
        ]
        coord Coordinate {
          point [
            5 4 1,
            25 4 -40.047,
            5 4 -5.0467,
            25 4 -34,
            0 0 -42,
            0 0 3,
            5 0 -42,
            5 0 3,
            5 0 -42,
            5 0 3,
            5 5 3,
            5 2 3,
            5 2 -42,
            5 2 -40,
            5 3 -40,
            5 3 -42,
            5 5 -42,
            5 3 3,
            5 3 2,
            5 3 1,
            5 4 1,
            5 4 -5.0467,
            5 1 -5.0467,
            5 1 1,
            5 2 1,
            5 2 2,
            5 5 -42,
            5 5 3,
            0 5 -42,
            0 5 3,
            0 5 -42,
            0 5 3,
            0 0 -42,
            0 0 3,
            25 0 -42,
            25 0 3,
            30 0 3,
            30 0 -42,
            30 0 -42,
            30 0 3,
            30 5 3,
            30 5 -42,
            30 5 -42,
            30 5 3,
            25 5 -42,
            25 5 3,
            25 5 -42,
            25 5 3,
            25 0 3,
            25 3 3,
            25 3 -42,
            25 3 -41,
            25 3 -40.047,
            25 4 -40.047,
            25 4 -34,
            25 1 -34,
            25 1 -40.047,
            25 2 -40.047,
            25 2 -41,
            25 2 -42,
            25 0 -42,
            25 2 3,
            25 2 1,
            25 3 1,
            25 4 -40.047,
            5 4 -5.0467,
            5 1 -5.0467,
            25 2 -40.047,
            25 3 -40.047,
            24.973 3 -40,
            24 3 -38.297,
            24 2 -38.297,
            24.973 2 -40,
            25 1 -40.047,
            25 1 -40.047,
            5 1 1,
            5 1 -5.0467,
            25 1 -34,
            25 1 -34,
            5 1 1,
            5 4 1,
            5 3 1,
            5 2 1,
            6 3 -0.75,
            6 2 -0.75,
            25 4 -34,
            6 2 1,
            6 3 1,
            25 2 1,
            25 3 1,
            5 2 1,
            5 2 3,
            25 2 1,
            25 2 3,
            5 2 2,
            6 2 1,
            25 3 1,
            25 3 3,
            5 3 1,
            5 3 3,
            5 3 2,
            6 3 1,
            5 3 1,
            6 3 -0.75,
            6 3 1,
            5 2 1,
            6 2 -0.75,
            6 2 1,
            6 3 -0.75,
            6 2 -0.75,
            6 3 1,
            6 2 1,
            5 2 -40,
            5 3 -40,
            24 2 -40,
            24 3 -40,
            5 2 -42,
            5 2 -40,
            25 2 -42,
            25 2 -41,
            25 2 -40.047,
            24.973 2 -40,
            24 2 -40,
            25 3 -42,
            5 3 -42,
            5 3 -40,
            25 3 -41,
            25 3 -40.047,
            24.973 3 -40,
            24 3 -40,
            24 3 -40,
            24 3 -38.297,
            24.973 3 -40,
            24 2 -40,
            24 2 -38.297,
            24.973 2 -40,
            24 3 -38.297,
            24 2 -38.297,
            24 3 -40,
            24 2 -40,
            25 1 -44,
            5 1 -85.047,
            25 1 -50.047,
            5 1 -79,
            30 5 -87,
            30 5 -42,
            25 5 -87,
            25 5 -42,
            25 5 -87,
            25 5 -42,
            25 0 -87,
            25 0 -42,
            25 3 -42,
            25 2 -42,
            25 3 -87,
            25 3 -85,
            25 2 -85,
            25 2 -87,
            25 2 -43,
            25 2 -44,
            25 1 -44,
            25 1 -50.047,
            25 4 -50.047,
            25 4 -44,
            25 3 -44,
            25 3 -43,
            25 0 -87,
            25 0 -42,
            30 0 -87,
            30 0 -42,
            30 0 -87,
            30 0 -42,
            30 5 -87,
            30 5 -42,
            5 5 -87,
            5 5 -42,
            0 5 -87,
            0 5 -42,
            0 5 -87,
            0 5 -42,
            0 0 -87,
            0 0 -42,
            0 0 -87,
            0 0 -42,
            5 0 -87,
            5 0 -42,
            5 0 -87,
            5 0 -42,
            5 5 -87,
            5 5 -42,
            5 2 -42,
            5 3 -42,
            5 3 -44,
            5 2 -44,
            5 2 -87,
            5 2 -86,
            5 2 -85.047,
            5 1 -85.047,
            5 1 -79,
            5 4 -79,
            5 4 -85.047,
            5 3 -85.047,
            5 3 -86,
            5 3 -87,
            5 1 -85.047,
            25 1 -50.047,
            25 4 -50.047,
            5 3 -85.047,
            5 2 -85.047,
            5.0267 2 -85,
            6 2 -83.297,
            6 3 -83.297,
            5.0267 3 -85,
            5 4 -85.047,
            5 4 -85.047,
            25 4 -44,
            25 4 -50.047,
            5 4 -79,
            5 4 -79,
            25 4 -44,
            25 1 -44,
            25 2 -44,
            25 3 -44,
            24 2 -45.75,
            24 3 -45.75,
            5 1 -79,
            0 0 -87,
            0 5 -87,
            5 0 -87,
            5 5 -87,
            5 2 -87,
            5 3 -87,
            25 0 -87,
            25 5 -87,
            30 0 -87,
            30 5 -87,
            25 3 -87,
            25 2 -87,
            24 3 -44,
            24 2 -44,
            5 3 -44,
            5 2 -44,
            25 3 -44,
            25 3 -42,
            5 3 -44,
            5 3 -42,
            25 3 -43,
            24 3 -44,
            5 2 -44,
            5 2 -42,
            25 2 -44,
            25 2 -42,
            25 2 -43,
            24 2 -44,
            25 2 -44,
            24 2 -45.75,
            24 2 -44,
            25 3 -44,
            24 3 -45.75,
            24 3 -44,
            24 2 -45.75,
            24 3 -45.75,
            24 2 -44,
            24 3 -44,
            25 3 -87,
            25 2 -87,
            5 3 -87,
            5 2 -87,
            25 3 -85,
            25 2 -85,
            6 3 -85,
            6 2 -85,
            25 3 -87,
            25 3 -85,
            5 3 -87,
            5 3 -86,
            5 3 -85.047,
            5.0267 3 -85,
            6 3 -85,
            5 2 -87,
            25 2 -87,
            25 2 -85,
            5 2 -86,
            5 2 -85.047,
            5.0267 2 -85,
            6 2 -85,
            6 2 -85,
            6 2 -83.297,
            5.0267 2 -85,
            6 3 -85,
            6 3 -83.297,
            5.0267 3 -85,
            6 2 -83.297,
            6 3 -83.297,
            6 2 -85,
            6 3 -85,
            5 4 91,
            25 4 49.953,
            5 4 84.953,
            25 4 56,
            0 0 93,
            0 5 93,
            5 0 93,
            5 5 93,
            5 2 93,
            5 3 93,
            0 0 48,
            0 0 93,
            5 0 48,
            5 0 93,
            5 0 48,
            5 0 93,
            5 5 48,
            5 5 93,
            5 3 93,
            5 2 93,
            5 3 48,
            5 3 92,
            5 3 91,
            5 4 91,
            5 4 84.953,
            5 1 84.953,
            5 1 91,
            5 2 91,
            5 2 92,
            5 2 48,
            5 2 50,
            5 3 50,
            5 5 48,
            5 5 93,
            0 5 48,
            0 5 93,
            0 5 48,
            0 5 93,
            0 0 48,
            0 0 93,
            25 0 93,
            25 5 93,
            30 0 93,
            30 5 93,
            25 3 93,
            25 2 93,
            25 0 48,
            25 0 93,
            30 0 48,
            30 0 93,
            30 0 48,
            30 0 93,
            30 5 48,
            30 5 93,
            30 5 48,
            30 5 93,
            25 5 48,
            25 5 93,
            25 5 48,
            25 5 93,
            25 0 48,
            25 0 93,
            25 2 93,
            25 3 93,
            25 2 48,
            25 2 91,
            25 3 91,
            25 3 48,
            25 3 49,
            25 3 49.953,
            25 4 49.953,
            25 4 56,
            25 1 56,
            25 1 49.953,
            25 2 49.953,
            25 2 49,
            25 4 49.953,
            5 4 84.953,
            5 1 84.953,
            25 2 49.953,
            25 3 49.953,
            24.973 3 50,
            24 3 51.703,
            24 2 51.703,
            24.973 2 50,
            25 1 49.953,
            25 1 49.953,
            5 1 91,
            5 1 84.953,
            25 1 56,
            25 1 56,
            5 1 91,
            5 4 91,
            5 3 91,
            5 2 91,
            6 3 89.25,
            6 2 89.25,
            25 4 56,
            6 2 91,
            6 3 91,
            25 2 91,
            25 3 91,
            5 2 93,
            5 3 93,
            25 2 93,
            25 3 93,
            5 2 91,
            5 2 93,
            25 2 91,
            25 2 93,
            5 2 92,
            6 2 91,
            25 3 91,
            25 3 93,
            5 3 91,
            5 3 93,
            5 3 92,
            6 3 91,
            5 3 91,
            6 3 89.25,
            6 3 91,
            5 2 91,
            6 2 89.25,
            6 2 91,
            6 3 89.25,
            6 2 89.25,
            6 3 91,
            6 2 91,
            5 2 50,
            5 3 50,
            24 2 50,
            24 3 50,
            5 2 48,
            5 2 50,
            25 2 48,
            25 2 49,
            25 2 49.953,
            24.973 2 50,
            24 2 50,
            25 3 48,
            5 3 48,
            5 3 50,
            25 3 49,
            25 3 49.953,
            24.973 3 50,
            24 3 50,
            24 3 50,
            24 3 51.703,
            24.973 3 50,
            24 2 50,
            24 2 51.703,
            24.973 2 50,
            24 3 51.703,
            24 2 51.703,
            24 3 50,
            24 2 50,
            25 1 46,
            5 1 4.9533,
            25 1 39.953,
            5 1 11,
            30 5 3,
            30 5 48,
            25 5 3,
            25 5 48,
            25 5 3,
            25 5 48,
            25 0 3,
            25 0 48,
            25 3 3,
            25 2 3,
            25 2 48,
            25 3 48,
            25 3 5,
            25 2 5,
            25 2 47,
            25 2 46,
            25 1 46,
            25 1 39.953,
            25 4 39.953,
            25 4 46,
            25 3 46,
            25 3 47,
            25 0 3,
            25 0 48,
            30 0 3,
            30 0 48,
            30 0 3,
            30 0 48,
            30 5 3,
            30 5 48,
            5 5 3,
            5 5 48,
            0 5 3,
            0 5 48,
            0 5 3,
            0 5 48,
            0 0 3,
            0 0 48,
            0 0 3,
            0 0 48,
            5 0 3,
            5 0 48,
            5 0 3,
            5 0 48,
            5 5 3,
            5 5 48,
            5 2 3,
            5 3 3,
            5 3 48,
            5 2 48,
            5 2 4,
            5 2 4.9533,
            5 1 4.9533,
            5 1 11,
            5 4 11,
            5 4 4.9533,
            5 3 4.9533,
            5 3 4,
            5 3 46,
            5 2 46,
            5 1 4.9533,
            25 1 39.953,
            25 4 39.953,
            5 3 4.9533,
            5 2 4.9533,
            5.0267 2 5,
            6 2 6.7033,
            6 3 6.7033,
            5.0267 3 5,
            5 4 4.9533,
            5 4 4.9533,
            25 4 46,
            25 4 39.953,
            5 4 11,
            5 4 11,
            25 4 46,
            25 1 46,
            25 2 46,
            25 3 46,
            24 2 44.25,
            24 3 44.25,
            5 1 11,
            24 3 46,
            24 2 46,
            5 3 46,
            5 2 46,
            25 3 46,
            25 3 48,
            5 3 46,
            5 3 48,
            25 3 47,
            24 3 46,
            5 2 46,
            5 2 48,
            25 2 46,
            25 2 48,
            25 2 47,
            24 2 46,
            25 2 46,
            24 2 44.25,
            24 2 46,
            25 3 46,
            24 3 44.25,
            24 3 46,
            24 2 44.25,
            24 3 44.25,
            24 2 46,
            24 3 46,
            25 3 5,
            25 2 5,
            6 3 5,
            6 2 5,
            25 3 3,
            25 3 5,
            5 3 3,
            5 3 4,
            5 3 4.9533,
            5.0267 3 5,
            6 3 5,
            5 2 3,
            25 2 3,
            25 2 5,
            5 2 4,
            5 2 4.9533,
            5.0267 2 5,
            6 2 5,
            6 2 5,
            6 2 6.7033,
            5.0267 2 5,
            6 3 5,
            6 3 6.7033,
            5.0267 3 5,
            6 2 6.7033,
            6 3 6.7033,
            6 2 5,
            6 3 5 
          ]
        }
      }
    }
  }
}

PROTO Gantry_pillar [
  field SFVec3f scale_GP 1 1 1
  field SFRotation rot_GP 0 0 0 0
  field SFVec3f trans_GP 0 0 0
]
{
  Transform {
    translation IS trans_GP
    scale IS scale_GP
    rotation IS rot_GP
    children [
      Gantry_part {
        # center to 0
        trans_G 0 0 -0.0666
      }
      Gantry_part {
        trans_G 0 0.25 -0.0666
      }
      Gantry_part {
        rot_G 0 0 1 1.5708
        trans_G 0.05 0 -0.0666
      }
      Gantry_part {
        rot_G 0 0 1 1.5708
        trans_G 0.3 0 -0.0666
      }
    ]
  }
}

Background {
  skyColor [
    0.76238 0.8 0.1427,
    0.277798 0.219779 0.7,
    0.222549 0.390234 0.7,
    0.60094 0.662637 0.69 
  ]
  skyAngle [0.1, 1.2, 1.57]
  groundColor [
    0 0.8 0,
    0.174249 0.82 0.187362,
    0.467223 0.82 0.445801,
    0.621997 0.67 0.600279 
  ]
  groundAngle [0.9, 1.5, 1.57]
}
Transform {
  rotation 0 1 0 -1.5708
  children DEF VP_Top Viewpoint {
    description "View from the Top"
    position 2 7 -2
    orientation 1 0 0 -1.5708
  }
}
DEF LandingSpot Transform {
  translation 0.1295537 -0.02 1.580386
  rotation 0 0 0 0
  children Shape {
    appearance Appearance {
      material DEF LS_Mat Material {
        diffuseColor 1 0 0
      }
    }
    geometry Cylinder {
      radius 0.1
      height 0.001
    }
  }
}
DEF Lines Transform {
  rotation 0 1 0 -1.5708
  children DEF Lines_Shape Shape {
    appearance Appearance {
      material Material {
        diffuseColor 1 0 0
      }
    }
    geometry IndexedFaceSet {
      solid FALSE
      coordIndex [
        0, 1, 2, 3, -1, 
        4, 5, 6, 7, -1, 
        8, 9, 10, 11, -1, 
        12, 13, 14, 15, -1, 
        16, 17, 18, 19, -1, 
        20, 21, 22, 23, -1, 
        24, 25, 26, 27, -1, 
        28, 29, 30, 31, -1, 
        32, 33, 34, 35, -1, 
        36, 37, 38, 39, -1, 
        40, 41, 42, 43, -1, 
        44, 45, 46, 47, -1, 
        48, 49, 50, 51, -1, 
        52, 53, 54, 55, -1, 
        56, 57, 58, 59, -1 
      ]
      convex FALSE
      coord Coordinate {
        point [
          2.340344 -0.02 -0.3669122,
          2.329632 -0.02 -1.357236,
          2.429626 -0.02 -1.358318,
          2.440338 -0.02 -0.3679937,
          2.38672 -0.02 -1.378187,
          2.744127 -0.02 -0.9474601,
          2.66717 -0.02 -0.8836033,
          2.309763 -0.02 -1.31433,
          2.622744 -0.02 -0.9050056,
          2.648786 -0.02 -2.225506,
          2.748766 -0.02 -2.223534,
          2.722724 -0.02 -0.9030339,
          2.768397 -0.02 -2.17071,
          2.35229 -0.02 -1.797313,
          2.285503 -0.02 -1.87174,
          2.70161 -0.02 -2.245137,
          2.30611 -0.02 -1.81792,
          2.30611 -0.02 -2.72571,
          2.40611 -0.02 -2.72571,
          2.40611 -0.02 -1.81792,
          2.287355 -0.02 -2.692226,
          2.709486 -0.02 -2.950835,
          2.761725 -0.02 -2.865564,
          2.339594 -0.02 -2.606955,
          2.741872 -0.02 -2.831006,
          1.284826 -0.02 -2.862658,
          1.286998 -0.02 -2.962634,
          2.744044 -0.02 -2.930982,
          0 -0.02 0,
          0 -0.02 0,
          0 -0.02 0,
          0 -0.02 0,
          1.331511 -0.02 -2.982134,
          1.733714 -0.02 -2.627029,
          1.667529 -0.02 -2.552066,
          1.265326 -0.02 -2.907171,
          1.715415 -0.02 -2.670256,
          1.672256 -0.02 -1.744895,
          1.572365 -0.02 -1.749554,
          1.615524 -0.02 -2.674915,
          1.651739 -0.02 -1.731858,
          1.174338 -0.02 -1.929271,
          1.212551 -0.02 -2.021682,
          1.689952 -0.02 -1.824269,
          0 -0.02 0,
          0 -0.02 0,
          0 -0.02 0,
          0 -0.02 0,
          1.290198 -0.02 -2.005816,
          1.279476 -0.02 -1.033182,
          1.179482 -0.02 -1.034284,
          1.190204 -0.02 -2.006918,
          1.160643 -0.02 -1.097347,
          1.542006 -0.02 -1.353587,
          1.597777 -0.02 -1.270584,
          1.216413 -0.02 -1.014343,
          1.57609 -0.02 -1.336399,
          1.619089 -0.02 -0.3815499,
          1.51919 -0.02 -0.3770513,
          1.476191 -0.02 -1.3319 
        ]
      }
    }
  }
}
DEF Markers Transform {
  rotation 0 1 0 -1.5708
  children DEF Markers_Shape Shape {
    appearance Appearance {
      material Material {
      }
    }
    geometry IndexedFaceSet {
      solid FALSE
      coordIndex [
        0, 1, 2, 3, -1, 
        4, 5, 6, 7, -1, 
        8, 9, 10, 11, -1, 
        12, 13, 14, 15, -1, 
        16, 17, 18, 19, -1, 
        20, 21, 22, 23, -1, 
        24, 25, 26, 27, -1, 
        28, 29, 30, 31, -1, 
        32, 33, 34, 35, -1, 
        36, 37, 38, 39, -1, 
        40, 41, 42, 43, -1, 
        44, 45, 46, 47, -1, 
        48, 49, 50, 51, -1, 
        52, 53, 54, 55, -1, 
        56, 57, 58, 59, -1, 
        60, 61, 62, 63, -1, 
        64, 65, 66, 67, -1, 
        68, 69, 70, 71, -1, 
        72, 73, 74, 75, -1, 
        76, 77, 78, 79, -1, 
        80, 81, 82, 83, -1, 
        84, 85, 86, 87, -1, 
        88, 89, 90, 91, -1, 
        92, 93, 94, 95, -1, 
        96, 97, 98, 99, -1, 
        100, 101, 102, 103, -1, 
        104, 105, 106, 107, -1, 
        108, 109, 110, 111, -1, 
        112, 113, 114, 115, -1, 
        116, 117, 118, 119, -1, 
        120, 121, 122, 123, -1, 
        124, 125, 126, 127, -1, 
        128, 129, 130, 131, -1, 
        132, 133, 134, 135, -1, 
        136, 137, 138, 139, -1, 
        140, 141, 142, 143, -1, 
        144, 145, 146, 147, -1, 
        148, 149, 150, 151, -1, 
        152, 153, 154, 155, -1, 
        156, 157, 158, 159, -1, 
        160, 161, 162, 163, -1, 
        164, 165, 166, 167, -1, 
        168, 169, 170, 171, -1, 
        172, 173, 174, 175, -1, 
        176, 177, 178, 179, -1, 
        180, 181, 182, 183, -1, 
        184, 185, 186, 187, -1, 
        188, 189, 190, 191, -1, 
        192, 193, 194, 195, -1, 
        196, 197, 198, 199, -1, 
        200, 201, 202, 203, -1, 
        204, 205, 206, 207, -1, 
        208, 209, 210, 211, -1, 
        212, 213, 214, 215, -1, 
        216, 217, 218, 219, -1, 
        220, 221, 222, 223, -1, 
        224, 225, 226, 227, -1, 
        228, 229, 230, 231, -1, 
        232, 233, 234, 235, -1, 
        236, 237, 238, 239, -1, 
        240, 241, 242, 243, -1, 
        244, 245, 246, 247, -1, 
        248, 249, 250, 251, -1, 
        252, 253, 254, 255, -1, 
        256, 257, 258, 259, -1, 
        260, 261, 262, 263, -1, 
        264, 265, 266, 267, -1, 
        268, 269, 270, 271, -1, 
        272, 273, 274, 275, -1, 
        276, 277, 278, 279, -1, 
        280, 281, 282, 283, -1, 
        284, 285, 286, 287, -1, 
        288, 289, 290, 291, -1, 
        292, 293, 294, 295, -1, 
        296, 297, 298, 299, -1, 
        300, 301, 302, 303, -1, 
        304, 305, 306, 307, -1, 
        308, 309, 310, 311, -1, 
        312, 313, 314, 315, -1, 
        316, 317, 318, 319, -1, 
        320, 321, 322, 323, -1, 
        324, 325, 326, 327, -1, 
        328, 329, 330, 331, -1, 
        332, 333, 334, 335, -1, 
        336, 337, 338, 339, -1, 
        340, 341, 342, 343, -1, 
        344, 345, 346, 347, -1, 
        348, 349, 350, 351, -1, 
        352, 353, 354, 355, -1, 
        356, 357, 358, 359, -1, 
        360, 361, 362, 363, -1, 
        364, 365, 366, 367, -1, 
        368, 369, 370, 371, -1, 
        372, 373, 374, 375, -1, 
        376, 377, 378, 379, -1, 
        380, 381, 382, 383, -1, 
        384, 385, 386, 387, -1, 
        388, 389, 390, 391, -1, 
        392, 393, 394, 395, -1, 
        396, 397, 398, 399, -1, 
        400, 401, 402, 403, -1, 
        404, 405, 406, 407, -1, 
        408, 409, 410, 411, -1, 
        412, 413, 414, 415, -1, 
        416, 417, 418, 419, -1, 
        420, 421, 422, 423, -1, 
        424, 425, 426, 427, -1, 
        428, 429, 430, 431, -1, 
        432, 433, 434, 435, -1, 
        436, 437, 438, 439, -1, 
        440, 441, 442, 443, -1, 
        444, 445, 446, 447, -1, 
        448, 449, 450, 451, -1, 
        452, 453, 454, 455, -1, 
        456, 457, 458, 459, -1, 
        460, 461, 462, 463, -1, 
        464, 465, 466, 467, -1, 
        468, 469, 470, 471, -1, 
        472, 473, 474, 475, -1, 
        476, 477, 478, 479, -1, 
        480, 481, 482, 483, -1, 
        484, 485, 486, 487, -1, 
        488, 489, 490, 491, -1, 
        492, 493, 494, 495, -1, 
        496, 497, 498, 499, -1, 
        500, 501, 502, 503, -1, 
        504, 505, 506, 507, -1, 
        508, 509, 510, 511, -1, 
        512, 513, 514, 515, -1, 
        516, 517, 518, 519, -1, 
        520, 521, 522, 523, -1, 
        524, 525, 526, 527, -1, 
        528, 529, 530, 531, -1, 
        532, 533, 534, 535, -1, 
        536, 537, 538, 539, -1, 
        540, 541, 542, 543, -1, 
        544, 545, 546, 547, -1, 
        548, 549, 550, 551, -1, 
        552, 553, 554, 555, -1, 
        556, 557, 558, 559, -1, 
        560, 561, 562, 563, -1, 
        564, 565, 566, 567, -1, 
        568, 569, 570, 571, -1, 
        572, 573, 574, 575, -1, 
        576, 577, 578, 579, -1, 
        580, 581, 582, 583, -1, 
        584, 585, 586, 587, -1, 
        588, 589, 590, 591, -1, 
        592, 593, 594, 595, -1, 
        596, 597, 598, 599, -1, 
        600, 601, 602, 603, -1, 
        604, 605, 606, 607, -1, 
        608, 609, 610, 611, -1, 
        612, 613, 614, 615, -1, 
        616, 617, 618, 619, -1, 
        620, 621, 622, 623, -1, 
        624, 625, 626, 627, -1, 
        628, 629, 630, 631, -1, 
        632, 633, 634, 635, -1, 
        636, 637, 638, 639, -1, 
        640, 641, 642, 643, -1, 
        644, 645, 646, 647, -1, 
        648, 649, 650, 651, -1, 
        652, 653, 654, 655, -1, 
        656, 657, 658, 659, -1, 
        660, 661, 662, 663, -1, 
        664, 665, 666, 667, -1, 
        668, 669, 670, 671, -1, 
        672, 673, 674, 675, -1, 
        676, 677, 678, 679, -1, 
        680, 681, 682, 683, -1, 
        684, 685, 686, 687, -1, 
        688, 689, 690, 691, -1, 
        692, 693, 694, 695, -1, 
        696, 697, 698, 699, -1, 
        700, 701, 702, 703, -1, 
        704, 705, 706, 707, -1, 
        708, 709, 710, 711, -1, 
        712, 713, 714, 715, -1, 
        716, 717, 718, 719, -1, 
        720, 721, 722, 723, -1, 
        724, 725, 726, 727, -1, 
        728, 729, 730, 731, -1, 
        732, 733, 734, 735, -1, 
        736, 737, 738, 739, -1, 
        740, 741, 742, 743, -1, 
        744, 745, 746, 747, -1, 
        748, 749, 750, 751, -1, 
        752, 753, 754, 755, -1, 
        756, 757, 758, 759, -1, 
        760, 761, 762, 763, -1, 
        764, 765, 766, 767, -1, 
        768, 769, 770, 771, -1, 
        772, 773, 774, 775, -1, 
        776, 777, 778, 779, -1, 
        780, 781, 782, 783, -1, 
        784, 785, 786, 787, -1, 
        788, 789, 790, 791, -1, 
        792, 793, 794, 795, -1, 
        796, 797, 798, 799, -1, 
        800, 801, 802, 803, -1, 
        804, 805, 806, 807, -1, 
        808, 809, 810, 811, -1, 
        812, 813, 814, 815, -1, 
        816, 817, 818, 819, -1, 
        820, 821, 822, 823, -1, 
        824, 825, 826, 827, -1, 
        828, 829, 830, 831, -1, 
        832, 833, 834, 835, -1, 
        836, 837, 838, 839, -1, 
        840, 841, 842, 843, -1, 
        844, 845, 846, 847, -1, 
        848, 849, 850, 851, -1, 
        852, 853, 854, 855, -1, 
        856, 857, 858, 859, -1, 
        860, 861, 862, 863, -1, 
        864, 865, 866, 867, -1, 
        868, 869, 870, 871, -1, 
        872, 873, 874, 875, -1, 
        876, 877, 878, 879, -1, 
        880, 881, 882, 883, -1, 
        884, 885, 886, 887, -1, 
        888, 889, 890, 891, -1, 
        892, 893, 894, 895, -1, 
        896, 897, 898, 899, -1, 
        900, 901, 902, 903, -1, 
        904, 905, 906, 907, -1, 
        908, 909, 910, 911, -1, 
        912, 913, 914, 915, -1, 
        916, 917, 918, 919, -1, 
        920, 921, 922, 923, -1, 
        924, 925, 926, 927, -1, 
        928, 929, 930, 931, -1, 
        932, 933, 934, 935, -1, 
        936, 937, 938, 939, -1, 
        940, 941, 942, 943, -1, 
        944, 945, 946, 947, -1, 
        948, 949, 950, 951, -1, 
        952, 953, 954, 955, -1, 
        956, 957, 958, 959, -1, 
        960, 961, 962, 963, -1, 
        964, 965, 966, 967, -1, 
        968, 969, 970, 971, -1, 
        972, 973, 974, 975, -1, 
        976, 977, 978, 979, -1, 
        980, 981, 982, 983, -1, 
        984, 985, 986, 987, -1, 
        988, 989, 990, 991, -1, 
        992, 993, 994, 995, -1, 
        996, 997, 998, 999, -1, 
        1000, 1001, 1002, 1003, -1, 
        1004, 1005, 1006, 1007, -1, 
        1008, 1009, 1010, 1011, -1, 
        1012, 1013, 1014, 1015, -1, 
        1016, 1017, 1018, 1019, -1, 
        1020, 1021, 1022, 1023, -1 
      ]
      convex FALSE
      coord Coordinate {
        point [
          0.05121721 -0.021 -0.1384574,
          0.05789936 -0.021 -0.09149621,
          0.1987828 -0.021 -0.1115426,
          0.1921006 -0.021 -0.1585038,
          0.1951577 -0.021 -0.3484878,
          0.1970335 -0.021 -0.3958849,
          0.05484229 -0.021 -0.4015122,
          0.05296652 -0.021 -0.3541151,
          0.1621723 -0.021 -0.69014,
          0.1156539 -0.021 -0.6994154,
          0.08782768 -0.021 -0.55986,
          0.1343461 -0.021 -0.5505846,
          0.1956313 -0.021 -0.9002235,
          0.1663709 -0.021 -0.9375576,
          0.05436874 -0.021 -0.8497765,
          0.0836291 -0.021 -0.8124424,
          0.1949922 -0.021 -1.151946,
          0.164826 -0.021 -1.188552,
          0.05500784 -0.021 -1.098054,
          0.08517398 -0.021 -1.061448,
          0.1997731 -0.021 -1.38083,
          0.1813207 -0.021 -1.424528,
          0.0502269 -0.021 -1.36917,
          0.06867925 -0.021 -1.325472,
          0.07964063 -0.021 -1.684729,
          0.05287523 -0.021 -1.645567,
          0.1703594 -0.021 -1.565271,
          0.1971248 -0.021 -1.604433,
          0.06511865 -0.021 -1.920158,
          0.05000026 -0.021 -1.875197,
          0.1848814 -0.021 -1.829842,
          0.1999997 -0.021 -1.874803,
          0.09538354 -0.021 -2.193905,
          0.05996398 -0.021 -2.162354,
          0.1546165 -0.021 -2.056095,
          0.190036 -0.021 -2.087646,
          0.1073983 -0.021 -2.302095,
          0.1546618 -0.021 -2.306115,
          0.1426017 -0.021 -2.447905,
          0.09533815 -0.021 -2.443885,
          0.05853943 -0.021 -2.590244,
          0.09268526 -0.021 -2.557319,
          0.1914606 -0.021 -2.659756,
          0.1573147 -0.021 -2.692681,
          0.111304 -0.021 -2.801261,
          0.1582865 -0.021 -2.807791,
          0.138696 -0.021 -2.948739,
          0.09171347 -0.021 -2.942209,
          0.1802005 -0.021 -3.074227,
          0.1996242 -0.021 -3.117502,
          0.06979951 -0.021 -3.175773,
          0.05037576 -0.021 -3.132498,
          0.1910679 -0.021 -3.339503,
          0.1991525 -0.021 -3.386243,
          0.0589321 -0.021 -3.410497,
          0.05084752 -0.021 -3.363757,
          0.1725084 -0.021 -3.683034,
          0.1281862 -0.021 -3.699932,
          0.07749163 -0.021 -3.566966,
          0.1218138 -0.021 -3.550068,
          0.1889071 -0.021 -3.914254,
          0.1525732 -0.021 -3.944747,
          0.0610929 -0.021 -3.835746,
          0.09742676 -0.021 -3.805253,
          0.3290536 -0.021 -0.06572159,
          0.37381 -0.021 -0.05000944,
          0.4209464 -0.021 -0.1842784,
          0.37619 -0.021 -0.1999906,
          0.4473279 -0.021 -0.3948413,
          0.4209575 -0.021 -0.4342698,
          0.3026721 -0.021 -0.3551587,
          0.3290425 -0.021 -0.3157302,
          0.3009836 -0.021 -0.6371065,
          0.3085229 -0.021 -0.5902754,
          0.4490164 -0.021 -0.6128935,
          0.4414771 -0.021 -0.6597246,
          0.3006435 -0.021 -0.8848038,
          0.3096325 -0.021 -0.8382291,
          0.4493565 -0.021 -0.8651962,
          0.4403675 -0.021 -0.9117709,
          0.4025794 -0.021 -1.055255,
          0.4389105 -0.021 -1.085752,
          0.3474206 -0.021 -1.194745,
          0.3110895 -0.021 -1.164248,
          0.3064245 -0.021 -1.405371,
          0.301917 -0.021 -1.358151,
          0.4435755 -0.021 -1.344629,
          0.448083 -0.021 -1.391849,
          0.3339225 -0.021 -1.687751,
          0.3044876 -0.021 -1.650554,
          0.4160775 -0.021 -1.562249,
          0.4455124 -0.021 -1.599446,
          0.3203993 -0.021 -1.823582,
          0.36217 -0.021 -1.801105,
          0.4296007 -0.021 -1.926418,
          0.38783 -0.021 -1.948895,
          0.3474125 -0.021 -2.055258,
          0.3947751 -0.021 -2.052654,
          0.4025875 -0.021 -2.194742,
          0.3552249 -0.021 -2.197346,
          0.3014325 -0.021 -2.389588,
          0.307393 -0.021 -2.34253,
          0.4485675 -0.021 -2.360412,
          0.442607 -0.021 -2.40747,
          0.3533958 -0.021 -2.696821,
          0.314624 -0.021 -2.669494,
          0.3966042 -0.021 -2.553179,
          0.435376 -0.021 -2.580506,
          0.4360099 -0.021 -2.918621,
          0.3976354 -0.021 -2.946503,
          0.3139901 -0.021 -2.831379,
          0.3523646 -0.021 -2.803497,
          0.3017943 -0.021 -3.108693,
          0.3262199 -0.021 -3.068031,
          0.4482057 -0.021 -3.141307,
          0.4237801 -0.021 -3.181969,
          0.3932237 -0.021 -3.447752,
          0.3459276 -0.021 -3.444136,
          0.3567763 -0.021 -3.302248,
          0.4040724 -0.021 -3.305864,
          0.4499325 -0.021 -3.621818,
          0.4368551 -0.021 -3.667414,
          0.3000675 -0.021 -3.628182,
          0.3131449 -0.021 -3.582586,
          0.3534994 -0.021 -3.803148,
          0.4009108 -0.021 -3.804618,
          0.3965006 -0.021 -3.946852,
          0.3490892 -0.021 -3.945382,
          0.651917 -0.021 -0.1950034,
          0.6045315 -0.021 -0.1971529,
          0.598083 -0.021 -0.05499659,
          0.6454685 -0.021 -0.05284709,
          0.5668545 -0.021 -0.4223719,
          0.5500605 -0.021 -0.3780102,
          0.6831455 -0.021 -0.3276281,
          0.6999395 -0.021 -0.3719898,
          0.5759653 -0.021 -0.5682496,
          0.6198225 -0.021 -0.5501789,
          0.6740347 -0.021 -0.6817504,
          0.6301775 -0.021 -0.6998211,
          0.5982603 -0.021 -0.9450713,
          0.5615655 -0.021 -0.9150132,
          0.6517397 -0.021 -0.8049287,
          0.6884345 -0.021 -0.8349868,
          0.5952709 -0.021 -1.056144,
          0.6425305 -0.021 -1.052078,
          0.6547291 -0.021 -1.193856,
          0.6074695 -0.021 -1.197922,
          0.5834305 -0.021 -1.437426,
          0.5542889 -0.021 -1.399999,
          0.6665695 -0.021 -1.312574,
          0.6957111 -0.021 -1.350001,
          0.5744222 -0.021 -1.56962,
          0.6177655 -0.021 -1.55035,
          0.6755778 -0.021 -1.68038,
          0.6322345 -0.021 -1.69965,
          0.5820055 -0.021 -1.813547,
          0.6274762 -0.021 -1.800041,
          0.6679945 -0.021 -1.936453,
          0.6225238 -0.021 -1.949959,
          0.5668833 -0.021 -2.172407,
          0.5500623 -0.021 -2.128056,
          0.6831167 -0.021 -2.077593,
          0.6999377 -0.021 -2.121944,
          0.6985237 -0.021 -2.360192,
          0.6927035 -0.021 -2.407268,
          0.5514763 -0.021 -2.389808,
          0.5572965 -0.021 -2.342732,
          0.6111086 -0.021 -2.698702,
          0.5696655 -0.021 -2.675627,
          0.6388914 -0.021 -2.551298,
          0.6803345 -0.021 -2.574373,
          0.5726034 -0.021 -2.928662,
          0.5508856 -0.021 -2.886492,
          0.6773966 -0.021 -2.821338,
          0.6991144 -0.021 -2.863508,
          0.6394874 -0.021 -3.198587,
          0.5924374 -0.021 -3.192562,
          0.6105126 -0.021 -3.051413,
          0.6575626 -0.021 -3.057438,
          0.6706525 -0.021 -3.434505,
          0.625819 -0.021 -3.449996,
          0.5793475 -0.021 -3.315495,
          0.624181 -0.021 -3.300004,
          0.6346398 -0.021 -3.550622,
          0.6773386 -0.021 -3.571281,
          0.6153602 -0.021 -3.699378,
          0.5726614 -0.021 -3.678719,
          0.5707442 -0.021 -3.926781,
          0.5505266 -0.021 -3.883872,
          0.6792558 -0.021 -3.823219,
          0.6994734 -0.021 -3.866128,
          0.9138101 -0.021 -0.06082233,
          0.9445547 -0.021 -0.09694394,
          0.8361899 -0.021 -0.1891777,
          0.8054453 -0.021 -0.1530561,
          0.834823 -0.021 -0.4383309,
          0.8048598 -0.021 -0.4015586,
          0.915177 -0.021 -0.3116691,
          0.9451402 -0.021 -0.3484414,
          0.8599784 -0.021 -0.5515197,
          0.9070709 -0.021 -0.5572028,
          0.8900216 -0.021 -0.6984803,
          0.8429291 -0.021 -0.6927972,
          0.8326167 -0.021 -0.9368761,
          0.8039677 -0.021 -0.8990709,
          0.9173833 -0.021 -0.8131239,
          0.9460323 -0.021 -0.8509291,
          0.8784416 -0.021 -1.050079,
          0.9227059 -0.021 -1.067128,
          0.8715584 -0.021 -1.199921,
          0.8272941 -0.021 -1.182872,
          0.8535643 -0.021 -1.303128,
          0.9009744 -0.021 -1.304641,
          0.8964357 -0.021 -1.446872,
          0.8490256 -0.021 -1.445359,
          0.8404531 -0.021 -1.69157,
          0.8074207 -0.021 -1.657528,
          0.9095469 -0.021 -1.55843,
          0.9425793 -0.021 -1.592472,
          0.9132549 -0.021 -1.93951,
          0.8668978 -0.021 -1.949561,
          0.8367451 -0.021 -1.81049,
          0.8831022 -0.021 -1.800439,
          0.8699141 -0.021 -2.050173,
          0.9158277 -0.021 -2.062087,
          0.8800859 -0.021 -2.199827,
          0.8341723 -0.021 -2.187913,
          0.9351445 -0.021 -2.330193,
          0.9499996 -0.021 -2.375241,
          0.8148555 -0.021 -2.419807,
          0.8000004 -0.021 -2.374759,
          0.8626361 -0.021 -2.698974,
          0.8207246 -0.021 -2.676761,
          0.8873639 -0.021 -2.551026,
          0.9292754 -0.021 -2.573239,
          0.8203455 -0.021 -2.82364,
          0.8620926 -0.021 -2.801119,
          0.9296545 -0.021 -2.92636,
          0.8879074 -0.021 -2.948881,
          0.8179889 -0.021 -3.173731,
          0.8001524 -0.021 -3.129778,
          0.9320111 -0.021 -3.076269,
          0.9498476 -0.021 -3.120222,
          0.8901132 -0.021 -3.301538,
          0.9311675 -0.021 -3.325299,
          0.8598868 -0.021 -3.448462,
          0.8188325 -0.021 -3.424701,
          0.8598583 -0.021 -3.551544,
          0.9069601 -0.021 -3.557151,
          0.8901417 -0.021 -3.698456,
          0.8430399 -0.021 -3.692849,
          0.9309313 -0.021 -3.924967,
          0.889765 -0.021 -3.948532,
          0.8190687 -0.021 -3.825033,
          0.860235 -0.021 -3.801468,
          1.152947 -0.021 -0.05540156,
          1.189117 -0.021 -0.08608968,
          1.097053 -0.021 -0.1945984,
          1.060883 -0.021 -0.1639103,
          1.194499 -0.021 -0.3468063,
          1.197515 -0.021 -0.3941444,
          1.055501 -0.021 -0.4031937,
          1.052485 -0.021 -0.3558556,
          1.051994 -0.021 -0.6421805,
          1.056287 -0.021 -0.594941,
          1.198006 -0.021 -0.6078195,
          1.193713 -0.021 -0.655059,
          1.162394 -0.021 -0.8099868,
          1.193923 -0.021 -0.8454256,
          1.087606 -0.021 -0.9400132,
          1.056077 -0.021 -0.9045744,
          1.051998 -0.021 -1.107804,
          1.076916 -0.021 -1.067442,
          1.198002 -0.021 -1.142196,
          1.173084 -0.021 -1.182558,
          1.18468 -0.021 -1.420424,
          1.145489 -0.021 -1.447147,
          1.06532 -0.021 -1.329576,
          1.104511 -0.021 -1.302853,
          1.169595 -0.021 -1.685301,
          1.124495 -0.021 -1.699998,
          1.080405 -0.021 -1.564699,
          1.125505 -0.021 -1.550002,
          1.078754 -0.021 -1.934045,
          1.052576 -0.021 -1.894489,
          1.171246 -0.021 -1.815955,
          1.197424 -0.021 -1.855511,
          1.100705 -0.021 -2.054044,
          1.148138 -0.021 -2.053658,
          1.149295 -0.021 -2.195956,
          1.101862 -0.021 -2.196342,
          1.136442 -0.021 -2.300878,
          1.178627 -0.021 -2.322567,
          1.113558 -0.021 -2.449122,
          1.071373 -0.021 -2.427433,
          1.119705 -0.021 -2.550187,
          1.165652 -0.021 -2.561973,
          1.130295 -0.021 -2.699813,
          1.084348 -0.021 -2.688027,
          1.116856 -0.021 -2.949557,
          1.073751 -0.021 -2.929759,
          1.133144 -0.021 -2.800443,
          1.176249 -0.021 -2.820241,
          1.050435 -0.021 -3.133063,
          1.06051 -0.021 -3.086711,
          1.199565 -0.021 -3.116937,
          1.18949 -0.021 -3.163289,
          1.197789 -0.021 -3.393077,
          1.172385 -0.021 -3.433135,
          1.052211 -0.021 -3.356923,
          1.077615 -0.021 -3.316865,
          1.194647 -0.021 -3.652827,
          1.164021 -0.021 -3.68905,
          1.055353 -0.021 -3.597173,
          1.085979 -0.021 -3.56095,
          1.189535 -0.021 -3.913212,
          1.153701 -0.021 -3.944291,
          1.060465 -0.021 -3.836788,
          1.096299 -0.021 -3.805709,
          1.322788 -0.021 -0.07115886,
          1.365535 -0.021 -0.05059966,
          1.427212 -0.021 -0.1788411,
          1.384465 -0.021 -0.1994003,
          1.3046 -0.021 -0.400862,
          1.303163 -0.021 -0.3534496,
          1.4454 -0.021 -0.349138,
          1.446837 -0.021 -0.3965504,
          1.423349 -0.021 -0.682336,
          1.379277 -0.021 -0.6998779,
          1.326651 -0.021 -0.567664,
          1.370723 -0.021 -0.5501221,
          1.304628 -0.021 -0.9009377,
          1.30314 -0.021 -0.8535269,
          1.445372 -0.021 -0.8490623,
          1.44686 -0.021 -0.8964731,
          1.436658 -0.021 -1.1677,
          1.398706 -0.021 -1.196155,
          1.313342 -0.021 -1.0823,
          1.351294 -0.021 -1.053845,
          1.449979 -0.021 -1.376775,
          1.433918 -0.021 -1.421407,
          1.300021 -0.021 -1.373225,
          1.316082 -0.021 -1.328593,
          1.397954 -0.021 -1.553599,
          1.436204 -0.021 -1.581652,
          1.352046 -0.021 -1.696401,
          1.313796 -0.021 -1.668348,
          1.300129 -0.021 -1.870596,
          1.317746 -0.021 -1.826554,
          1.449871 -0.021 -1.879404,
          1.432254 -0.021 -1.923446,
          1.429154 -0.021 -2.073112,
          1.449456 -0.021 -2.115982,
          1.320846 -0.021 -2.176888,
          1.300544 -0.021 -2.134018,
          1.329203 -0.021 -2.315606,
          1.373999 -0.021 -2.300007,
          1.420797 -0.021 -2.434394,
          1.376001 -0.021 -2.449993,
          1.301472 -0.021 -2.610214,
          1.325049 -0.021 -2.569055,
          1.448528 -0.021 -2.639786,
          1.424951 -0.021 -2.680945,
          1.381678 -0.021 -2.800298,
          1.425163 -0.021 -2.819245,
          1.368322 -0.021 -2.949702,
          1.324837 -0.021 -2.930755,
          1.410222 -0.021 -3.058785,
          1.442906 -0.021 -3.093161,
          1.339778 -0.021 -3.191215,
          1.307094 -0.021 -3.156839,
          1.444328 -0.021 -3.346387,
          1.44763 -0.021 -3.393706,
          1.305672 -0.021 -3.403613,
          1.30237 -0.021 -3.356294,
          1.446229 -0.021 -3.601516,
          1.446073 -0.021 -3.648951,
          1.303771 -0.021 -3.648484,
          1.303927 -0.021 -3.601049,
          1.404453 -0.021 -3.806025,
          1.439947 -0.021 -3.837492,
          1.345547 -0.021 -3.943975,
          1.310053 -0.021 -3.912508,
          1.555505 -0.021 -0.09679654,
          1.586326 -0.021 -0.06074019,
          1.694495 -0.021 -0.1532035,
          1.663674 -0.021 -0.1892598,
          1.694513 -0.021 -0.3468404,
          1.697506 -0.021 -0.39418,
          1.555487 -0.021 -0.4031596,
          1.552494 -0.021 -0.35582,
          1.550818 -0.021 -0.636047,
          1.559026 -0.021 -0.5893285,
          1.699182 -0.021 -0.613953,
          1.690974 -0.021 -0.6606715,
          1.55748 -0.021 -0.9076501,
          1.551394 -0.021 -0.8606079,
          1.69252 -0.021 -0.8423499,
          1.698606 -0.021 -0.8893921,
          1.625066 -0.021 -1.05,
          1.670053 -0.021 -1.065039,
          1.624934 -0.021 -1.2,
          1.579947 -0.021 -1.184961,
          1.658361 -0.021 -1.442172,
          1.611386 -0.021 -1.448754,
          1.591639 -0.021 -1.307828,
          1.638614 -0.021 -1.301246,
          1.554138 -0.021 -1.649567,
          1.55357 -0.021 -1.602137,
          1.695862 -0.021 -1.600433,
          1.69643 -0.021 -1.647863,
          1.668948 -0.021 -1.814225,
          1.696623 -0.021 -1.852749,
          1.581052 -0.021 -1.935775,
          1.553377 -0.021 -1.897251,
          1.550813 -0.021 -2.113988,
          1.572258 -0.021 -2.071678,
          1.699187 -0.021 -2.136012,
          1.677742 -0.021 -2.178322,
          1.645458 -0.021 -2.302844,
          1.68466 -0.021 -2.32955,
          1.604542 -0.021 -2.447156,
          1.56534 -0.021 -2.42045,
          1.596269 -0.021 -2.555721,
          1.643583 -0.021 -2.552339,
          1.653731 -0.021 -2.694279,
          1.606417 -0.021 -2.697661,
          1.551784 -0.021 -2.858741,
          1.576182 -0.021 -2.818063,
          1.698216 -0.021 -2.891259,
          1.673818 -0.021 -2.931937,
          1.650172 -0.021 -3.19565,
          1.602748 -0.021 -3.196623,
          1.599828 -0.021 -3.05435,
          1.647252 -0.021 -3.053377,
          1.568807 -0.021 -3.325328,
          1.609848 -0.021 -3.301546,
          1.681193 -0.021 -3.424672,
          1.640152 -0.021 -3.448454,
          1.698463 -0.021 -3.640105,
          1.674708 -0.021 -3.681162,
          1.551537 -0.021 -3.609895,
          1.575292 -0.021 -3.568838,
          1.558121 -0.021 -3.841055,
          1.591864 -0.021 -3.807717,
          1.691879 -0.021 -3.908945,
          1.658136 -0.021 -3.942283,
          1.817132 -0.021 -0.07728899,
          1.857332 -0.021 -0.05211063,
          1.932868 -0.021 -0.172711,
          1.892668 -0.021 -0.1978894,
          1.842447 -0.021 -0.307433,
          1.889498 -0.021 -0.3014146,
          1.907553 -0.021 -0.442567,
          1.860502 -0.021 -0.4485854,
          1.915005 -0.021 -0.5615605,
          1.945068 -0.021 -0.5982516,
          1.834995 -0.021 -0.6884395,
          1.804932 -0.021 -0.6517484,
          1.94308 -0.021 -0.8435342,
          1.948344 -0.021 -0.8906754,
          1.80692 -0.021 -0.9064658,
          1.801656 -0.021 -0.8593246,
          1.859939 -0.021 -1.051528,
          1.907035 -0.021 -1.057186,
          1.890061 -0.021 -1.198472,
          1.842965 -0.021 -1.192814,
          1.80135 -0.021 -1.360836,
          1.824578 -0.021 -1.319479,
          1.94865 -0.021 -1.389164,
          1.925422 -0.021 -1.430521,
          1.92873 -0.021 -1.572673,
          1.94938 -0.021 -1.615376,
          1.82127 -0.021 -1.677327,
          1.80062 -0.021 -1.634624,
          1.801232 -0.021 -1.861464,
          1.824107 -0.021 -1.81991,
          1.948768 -0.021 -1.888536,
          1.925893 -0.021 -1.93009,
          1.948273 -0.021 -2.108996,
          1.943221 -0.021 -2.15616,
          1.801727 -0.021 -2.141004,
          1.806779 -0.021 -2.09384,
          1.942932 -0.021 -2.406785,
          1.910275 -0.021 -2.441187,
          1.807068 -0.021 -2.343215,
          1.839725 -0.021 -2.308813,
          1.903266 -0.021 -2.555531,
          1.939295 -0.021 -2.586384,
          1.846734 -0.021 -2.694469,
          1.810705 -0.021 -2.663616,
          1.806531 -0.021 -2.905611,
          1.801859 -0.021 -2.858407,
          1.943469 -0.021 -2.844389,
          1.948141 -0.021 -2.891593,
          1.895311 -0.021 -3.052803,
          1.934568 -0.021 -3.079429,
          1.854689 -0.021 -3.197197,
          1.815432 -0.021 -3.170571,
          1.915902 -0.021 -3.437865,
          1.870002 -0.021 -3.449833,
          1.834098 -0.021 -3.312135,
          1.879998 -0.021 -3.300167,
          1.800002 -0.021 -3.62449,
          1.815308 -0.021 -3.579593,
          1.949998 -0.021 -3.62551,
          1.934692 -0.021 -3.670407,
          1.808979 -0.021 -3.839417,
          1.843533 -0.021 -3.806921,
          1.941021 -0.021 -3.910583,
          1.906467 -0.021 -3.943079,
          2.199454 -0.021 -0.1159661,
          2.189983 -0.021 -0.1624452,
          2.050546 -0.021 -0.1340339,
          2.060017 -0.021 -0.08755475,
          2.055892 -0.021 -0.3458617,
          2.087196 -0.021 -0.3102244,
          2.194108 -0.021 -0.4041383,
          2.162804 -0.021 -0.4397756,
          2.096864 -0.021 -0.6945225,
          2.060778 -0.021 -0.6637366,
          2.153136 -0.021 -0.5554775,
          2.189222 -0.021 -0.5862634,
          2.199996 -0.021 -0.8742104,
          2.18547 -0.021 -0.9193658,
          2.050004 -0.021 -0.8757896,
          2.06453 -0.021 -0.8306342,
          2.055555 -0.021 -1.153326,
          2.052448 -0.021 -1.105993,
          2.194445 -0.021 -1.096674,
          2.197552 -0.021 -1.144007,
          2.172332 -0.021 -1.433178,
          2.127959 -0.021 -1.449942,
          2.077668 -0.021 -1.316822,
          2.122041 -0.021 -1.300058,
          2.192481 -0.021 -1.657731,
          2.159346 -0.021 -1.691673,
          2.057519 -0.021 -1.592269,
          2.090654 -0.021 -1.558327,
          2.167434 -0.021 -1.936841,
          2.121843 -0.021 -1.949934,
          2.082566 -0.021 -1.813159,
          2.128157 -0.021 -1.800066,
          2.18695 -0.021 -2.167276,
          2.149194 -0.021 -2.19599,
          2.06305 -0.021 -2.082724,
          2.100806 -0.021 -2.05401,
          2.173578 -0.021 -2.432142,
          2.129577 -0.021 -2.44986,
          2.076422 -0.021 -2.317858,
          2.120423 -0.021 -2.30014,
          2.199892 -0.021 -2.62097,
          2.187331 -0.021 -2.666711,
          2.050108 -0.021 -2.62903,
          2.062669 -0.021 -2.583289,
          2.060203 -0.021 -2.837232,
          2.095823 -0.021 -2.805908,
          2.189797 -0.021 -2.912768,
          2.154177 -0.021 -2.944092,
          2.134092 -0.021 -3.199447,
          2.087605 -0.021 -3.190013,
          2.115908 -0.021 -3.050553,
          2.162395 -0.021 -3.059987,
          2.050235 -0.021 -3.380937,
          2.061626 -0.021 -3.334891,
          2.199765 -0.021 -3.369063,
          2.188374 -0.021 -3.415109,
          2.078644 -0.021 -3.566041,
          2.12329 -0.021 -3.55002,
          2.171356 -0.021 -3.683959,
          2.12671 -0.021 -3.69998,
          2.053982 -0.021 -3.899112,
          2.053718 -0.021 -3.851678,
          2.196018 -0.021 -3.850888,
          2.196282 -0.021 -3.898322,
          2.300351 -0.021 -0.1322491,
          2.310931 -0.021 -0.08600998,
          2.449649 -0.021 -0.1177509,
          2.439069 -0.021 -0.16399,
          2.316036 -0.021 -0.4213488,
          2.300019 -0.021 -0.3767004,
          2.433964 -0.021 -0.3286512,
          2.449981 -0.021 -0.3732996,
          2.442306 -0.021 -0.6580902,
          2.40899 -0.021 -0.6918555,
          2.307694 -0.021 -0.5919098,
          2.34101 -0.021 -0.5581445,
          2.305415 -0.021 -0.9029818,
          2.302543 -0.021 -0.8556346,
          2.444585 -0.021 -0.8470182,
          2.447457 -0.021 -0.8943654,
          2.398977 -0.021 -1.053936,
          2.43682 -0.021 -1.082535,
          2.351023 -0.021 -1.196064,
          2.31318 -0.021 -1.167465,
          2.408088 -0.021 -1.307693,
          2.441854 -0.021 -1.341008,
          2.341912 -0.021 -1.442307,
          2.308146 -0.021 -1.408992,
          2.389476 -0.021 -1.69859,
          2.342427 -0.021 -1.692558,
          2.360524 -0.021 -1.55141,
          2.407573 -0.021 -1.557442,
          2.416274 -0.021 -1.937622,
          2.370446 -0.021 -1.949862,
          2.333726 -0.021 -1.812378,
          2.379554 -0.021 -1.800138,
          2.300281 -0.021 -2.118519,
          2.319113 -0.021 -2.074983,
          2.449719 -0.021 -2.131481,
          2.430887 -0.021 -2.175017,
          2.31145 -0.021 -2.33517,
          2.348058 -0.021 -2.305006,
          2.43855 -0.021 -2.41483,
          2.401942 -0.021 -2.444994,
          2.325112 -0.021 -2.681002,
          2.301489 -0.021 -2.639869,
          2.424888 -0.021 -2.568998,
          2.448511 -0.021 -2.610131,
          2.417247 -0.021 -2.936969,
          2.371616 -0.021 -2.949924,
          2.332753 -0.021 -2.813031,
          2.378384 -0.021 -2.800076,
          2.434756 -0.021 -3.079677,
          2.449999 -0.021 -3.124595,
          2.315244 -0.021 -3.170323,
          2.300001 -0.021 -3.125405,
          2.448594 -0.021 -3.389453,
          2.425204 -0.021 -3.430719,
          2.301406 -0.021 -3.360547,
          2.324796 -0.021 -3.319281,
          2.445645 -0.021 -3.650184,
          2.416406 -0.021 -3.687535,
          2.304355 -0.021 -3.599816,
          2.333594 -0.021 -3.562465,
          2.438113 -0.021 -3.915518,
          2.40118 -0.021 -3.945282,
          2.311887 -0.021 -3.834482,
          2.34882 -0.021 -3.804718,
          2.68118 -0.021 -0.1746875,
          2.640131 -0.021 -0.1984578,
          2.56882 -0.021 -0.07531251,
          2.609869 -0.021 -0.05154222,
          2.557088 -0.021 -0.343173,
          2.589767 -0.021 -0.3087912,
          2.692912 -0.021 -0.406827,
          2.660233 -0.021 -0.4412088,
          2.550748 -0.021 -0.6144317,
          2.57194 -0.021 -0.5719944,
          2.699252 -0.021 -0.6355683,
          2.67806 -0.021 -0.6780056,
          2.699999 -0.021 -0.8754098,
          2.684753 -0.021 -0.9203272,
          2.550001 -0.021 -0.8745902,
          2.565247 -0.021 -0.8296728,
          2.67967 -0.021 -1.073657,
          2.699542 -0.021 -1.116728,
          2.57033 -0.021 -1.176343,
          2.550458 -0.021 -1.133272,
          2.591985 -0.021 -1.307658,
          2.638993 -0.021 -1.301317,
          2.658015 -0.021 -1.442342,
          2.611007 -0.021 -1.448683,
          2.595922 -0.021 -1.555866,
          2.643218 -0.021 -1.552246,
          2.654078 -0.021 -1.694134,
          2.606782 -0.021 -1.697754,
          2.69978 -0.021 -1.880742,
          2.681379 -0.021 -1.924461,
          2.55022 -0.021 -1.869258,
          2.568621 -0.021 -1.825539,
          2.652273 -0.021 -2.055134,
          2.688737 -0.021 -2.085471,
          2.597727 -0.021 -2.194866,
          2.561263 -0.021 -2.164529,
          2.680693 -0.021 -2.324767,
          2.699694 -0.021 -2.36823,
          2.569307 -0.021 -2.425233,
          2.550306 -0.021 -2.38177,
          2.693488 -0.021 -2.594433,
          2.698131 -0.021 -2.641639,
          2.556512 -0.021 -2.655567,
          2.551869 -0.021 -2.608361,
          2.651612 -0.021 -2.80488,
          2.688362 -0.021 -2.834872,
          2.598388 -0.021 -2.94512,
          2.561638 -0.021 -2.915128,
          2.617637 -0.021 -3.050362,
          2.663893 -0.021 -3.060872,
          2.632363 -0.021 -3.199638,
          2.586107 -0.021 -3.189128,
          2.552109 -0.021 -3.39266,
          2.556091 -0.021 -3.345393,
          2.697891 -0.021 -3.35734,
          2.693909 -0.021 -3.404607,
          2.677566 -0.021 -3.678496,
          2.634956 -0.021 -3.699336,
          2.572434 -0.021 -3.571504,
          2.615044 -0.021 -3.550664,
          2.58192 -0.021 -3.936393,
          2.5537 -0.021 -3.898267,
          2.66808 -0.021 -3.813607,
          2.6963 -0.021 -3.851733,
          2.940095 -0.021 -0.1622507,
          2.904726 -0.021 -0.1938577,
          2.809905 -0.021 -0.08774933,
          2.845274 -0.021 -0.05614233,
          2.94939 -0.021 -0.3654511,
          2.940241 -0.021 -0.4119946,
          2.80061 -0.021 -0.3845489,
          2.809759 -0.021 -0.3380054,
          2.932163 -0.021 -0.5764469,
          2.949862 -0.021 -0.6204553,
          2.817837 -0.021 -0.6735531,
          2.800138 -0.021 -0.6295447,
          2.874954 -0.021 -0.95,
          2.829963 -0.021 -0.9349723,
          2.875046 -0.021 -0.8,
          2.920037 -0.021 -0.8150277,
          2.877673 -0.021 -1.199952,
          2.832167 -0.021 -1.186566,
          2.872327 -0.021 -1.050048,
          2.917833 -0.021 -1.063434,
          2.860147 -0.021 -1.448515,
          2.819009 -0.021 -1.4249,
          2.889853 -0.021 -1.301485,
          2.930991 -0.021 -1.3251,
          2.810239 -0.021 -1.662829,
          2.800494 -0.021 -1.616406,
          2.939761 -0.021 -1.587171,
          2.949506 -0.021 -1.633594,
          2.813501 -0.021 -1.832071,
          2.851558 -0.021 -1.803758,
          2.936499 -0.021 -1.917929,
          2.898442 -0.021 -1.946242,
          2.949003 -0.021 -2.112812,
          2.941515 -0.021 -2.159651,
          2.800997 -0.021 -2.137188,
          2.808485 -0.021 -2.090349,
          2.894107 -0.021 -2.302475,
          2.933801 -0.021 -2.328444,
          2.855893 -0.021 -2.447525,
          2.816199 -0.021 -2.421556,
          2.800091 -0.021 -2.621314,
          2.817284 -0.021 -2.577106,
          2.949909 -0.021 -2.628686,
          2.932716 -0.021 -2.672894,
          2.899468 -0.021 -2.804104,
          2.937113 -0.021 -2.832964,
          2.850532 -0.021 -2.945896,
          2.812887 -0.021 -2.917036,
          2.853321 -0.021 -3.196798,
          2.814578 -0.021 -3.169431,
          2.896679 -0.021 -3.053202,
          2.935422 -0.021 -3.080569,
          2.815791 -0.021 -3.421036,
          2.800011 -0.021 -3.376303,
          2.934209 -0.021 -3.328964,
          2.949989 -0.021 -3.373697,
          2.949986 -0.021 -3.626428,
          2.934132 -0.021 -3.671134,
          2.800014 -0.021 -3.623572,
          2.815868 -0.021 -3.578866,
          2.927732 -0.021 -3.928332,
          2.885187 -0.021 -3.949305,
          2.822268 -0.021 -3.821668,
          2.864813 -0.021 -3.800695,
          3.067695 -0.021 -0.07661472,
          3.108187 -0.021 -0.05190877,
          3.182305 -0.021 -0.1733853,
          3.141813 -0.021 -0.1980912,
          3.111122 -0.021 -0.4487048,
          3.069675 -0.021 -0.425637,
          3.138878 -0.021 -0.3012952,
          3.180325 -0.021 -0.324363,
          3.16804 -0.021 -0.5635787,
          3.196285 -0.021 -0.6016868,
          3.08196 -0.021 -0.6864213,
          3.053715 -0.021 -0.6483132,
          3.193462 -0.021 -0.9056259,
          3.161394 -0.021 -0.9405779,
          3.056538 -0.021 -0.8443741,
          3.088606 -0.021 -0.8094221,
          3.194238 -0.021 -1.096172,
          3.197687 -0.021 -1.143481,
          3.055762 -0.021 -1.153828,
          3.052313 -0.021 -1.106519,
          3.050186 -0.021 -1.380286,
          3.061978 -0.021 -1.334341,
          3.199814 -0.021 -1.369714,
          3.188022 -0.021 -1.415659,
          3.083121 -0.021 -1.562782,
          3.128827 -0.021 -1.550098,
          3.166879 -0.021 -1.687218,
          3.121173 -0.021 -1.699902,
          3.196075 -0.021 -1.851056,
          3.196227 -0.021 -1.89849,
          3.053925 -0.021 -1.898944,
          3.053773 -0.021 -1.85151,
          3.131288 -0.021 -2.199736,
          3.085189 -0.021 -2.188561,
          3.118712 -0.021 -2.050264,
          3.164811 -0.021 -2.061439,
          3.076 -0.021 -2.431781,
          3.051732 -0.021 -2.391025,
          3.174 -0.021 -2.318219,
          3.198268 -0.021 -2.358975,
          3.060775 -0.021 -2.663732,
          3.050381 -0.021 -2.61745,
          3.189225 -0.021 -2.586268,
          3.199619 -0.021 -2.63255,
          3.107606 -0.021 -2.802045,
          3.154858 -0.021 -2.806199,
          3.142394 -0.021 -2.947955,
          3.095142 -0.021 -2.943801,
          3.132994 -0.021 -3.050427,
          3.176139 -0.021 -3.070138,
          3.117006 -0.021 -3.199573,
          3.073861 -0.021 -3.179862,
          3.196471 -0.021 -3.397734,
          3.168537 -0.021 -3.43607,
          3.053529 -0.021 -3.352266,
          3.081463 -0.021 -3.31393,
          3.177393 -0.021 -3.678665,
          3.134715 -0.021 -3.699368,
          3.072607 -0.021 -3.571335,
          3.115285 -0.021 -3.550632,
          3.098081 -0.021 -3.945003,
          3.061463 -0.021 -3.914851,
          3.151919 -0.021 -3.804997,
          3.188537 -0.021 -3.835149,
          3.449955 -0.021 -0.1275896,
          3.43341 -0.021 -0.1720449,
          3.300045 -0.021 -0.1224103,
          3.31659 -0.021 -0.07795511,
          3.301269 -0.021 -0.3887399,
          3.307771 -0.021 -0.3417535,
          3.448731 -0.021 -0.3612601,
          3.442229 -0.021 -0.4082465,
          3.358804 -0.021 -0.6982305,
          3.318105 -0.021 -0.6738671,
          3.391196 -0.021 -0.5517695,
          3.431895 -0.021 -0.5761329,
          3.428212 -0.021 -0.927853,
          3.385858 -0.021 -0.9492099,
          3.321788 -0.021 -0.822147,
          3.364142 -0.021 -0.8007901,
          3.416083 -0.021 -1.187747,
          3.370218 -0.021 -1.199847,
          3.333917 -0.021 -1.062253,
          3.379782 -0.021 -1.050153,
          3.420574 -0.021 -1.315435,
          3.447198 -0.021 -1.354693,
          3.329426 -0.021 -1.434565,
          3.302802 -0.021 -1.395307,
          3.321696 -0.021 -1.57224,
          3.364012 -0.021 -1.550809,
          3.428304 -0.021 -1.67776,
          3.385988 -0.021 -1.699191,
          3.309909 -0.021 -1.912258,
          3.300572 -0.021 -1.865751,
          3.440091 -0.021 -1.837742,
          3.449428 -0.021 -1.884249,
          3.423141 -0.021 -2.06749,
          3.448019 -0.021 -2.107877,
          3.326859 -0.021 -2.18251,
          3.301981 -0.021 -2.142123,
          3.44591 -0.021 -2.399429,
          3.417071 -0.021 -2.437089,
          3.30409 -0.021 -2.350571,
          3.332929 -0.021 -2.312911,
          3.349301 -0.021 -2.55454,
          3.396717 -0.021 -2.553213,
          3.400699 -0.021 -2.69546,
          3.353283 -0.021 -2.696787,
          3.34524 -0.021 -2.806157,
          3.392497 -0.021 -2.80207,
          3.40476 -0.021 -2.943843,
          3.357503 -0.021 -2.94793,
          3.300168 -0.021 -3.119983,
          3.318144 -0.021 -3.076088,
          3.449832 -0.021 -3.130017,
          3.431856 -0.021 -3.173912,
          3.425306 -0.021 -3.430626,
          3.381869 -0.021 -3.449685,
          3.324694 -0.021 -3.319374,
          3.368131 -0.021 -3.300315,
          3.303111 -0.021 -3.603622,
          3.330316 -0.021 -3.564764,
          3.446889 -0.021 -3.646378,
          3.419684 -0.021 -3.685236,
          3.375599 -0.021 -3.949998,
          3.330481 -0.021 -3.935358,
          3.374401 -0.021 -3.800002,
          3.419519 -0.021 -3.814642,
          3.69005 -0.021 -0.162329,
          3.654643 -0.021 -0.1938934,
          3.55995 -0.021 -0.08767096,
          3.595357 -0.021 -0.05610658,
          3.664631 -0.021 -0.438674,
          3.6185 -0.021 -0.4497178,
          3.585369 -0.021 -0.311326,
          3.6315 -0.021 -0.3002822,
          3.666661 -0.021 -0.5626355,
          3.695748 -0.021 -0.6001052,
          3.583339 -0.021 -0.6873645,
          3.554252 -0.021 -0.6498948,
          3.699394 -0.021 -0.8845143,
          3.678807 -0.021 -0.9272479,
          3.550606 -0.021 -0.8654857,
          3.571193 -0.021 -0.8227521,
          3.652048 -0.021 -1.194953,
          3.604667 -0.021 -1.197191,
          3.597952 -0.021 -1.055047,
          3.645333 -0.021 -1.052809,
          3.699991 -0.021 -1.3762,
          3.684273 -0.021 -1.420954,
          3.550009 -0.021 -1.3738,
          3.565727 -0.021 -1.329046,
          3.567057 -0.021 -1.67262,
          3.550074 -0.021 -1.62833,
          3.682943 -0.021 -1.57738,
          3.699926 -0.021 -1.62167,
          3.697881 -0.021 -1.857297,
          3.693926 -0.021 -1.904566,
          3.552119 -0.021 -1.892703,
          3.556074 -0.021 -1.845434,
          3.667539 -0.021 -2.063231,
          3.696093 -0.021 -2.101108,
          3.582461 -0.021 -2.186769,
          3.553907 -0.021 -2.148892,
          3.6708 -0.021 -2.434391,
          3.626005 -0.021 -2.449993,
          3.5792 -0.021 -2.315609,
          3.623995 -0.021 -2.300007,
          3.697384 -0.021 -2.644637,
          3.671125 -0.021 -2.68414,
          3.552616 -0.021 -2.605363,
          3.578875 -0.021 -2.56586,
          3.622098 -0.021 -2.949944,
          3.577713 -0.021 -2.933214,
          3.627902 -0.021 -2.800056,
          3.672287 -0.021 -2.816786,
          3.563009 -0.021 -3.167215,
          3.550078 -0.021 -3.121577,
          3.686991 -0.021 -3.082785,
          3.699922 -0.021 -3.128423,
          3.696262 -0.021 -3.398383,
          3.66798 -0.021 -3.436463,
          3.553738 -0.021 -3.351617,
          3.58202 -0.021 -3.313537,
          3.695435 -0.021 -3.599232,
          3.696808 -0.021 -3.646646,
          3.554565 -0.021 -3.650768,
          3.553192 -0.021 -3.603354,
          3.610537 -0.021 -3.948592,
          3.569274 -0.021 -3.925196,
          3.639463 -0.021 -3.801408,
          3.680726 -0.021 -3.824804,
          3.876819 -0.021 -0.1999779,
          3.831469 -0.021 -0.186074,
          3.873181 -0.021 -0.05002207,
          3.918531 -0.021 -0.06392599,
          3.949826 -0.021 -0.3801029,
          3.931799 -0.021 -0.423978,
          3.800174 -0.021 -0.3698971,
          3.818201 -0.021 -0.326022,
          3.876397 -0.021 -0.699987,
          3.831125 -0.021 -0.6858277,
          3.873603 -0.021 -0.550013,
          3.918875 -0.021 -0.5641723,
          3.949965 -0.021 -0.8727116,
          3.936345 -0.021 -0.9181483,
          3.800035 -0.021 -0.8772884,
          3.813655 -0.021 -0.8318517,
          3.803081 -0.021 -1.146277,
          3.804699 -0.021 -1.098871,
          3.946919 -0.021 -1.103723,
          3.945301 -0.021 -1.151129,
          3.856448 -0.021 -1.302331,
          3.90376 -0.021 -1.305733,
          3.893552 -0.021 -1.447669,
          3.84624 -0.021 -1.444267,
          3.809246 -0.021 -1.588926,
          3.844041 -0.021 -1.556688,
          3.940754 -0.021 -1.661074,
          3.905959 -0.021 -1.693312,
          3.947796 -0.021 -1.89305,
          3.922406 -0.021 -1.933118,
          3.802204 -0.021 -1.85695,
          3.827594 -0.021 -1.816882,
          3.948702 -0.021 -2.138894,
          3.925625 -0.021 -2.180336,
          3.801298 -0.021 -2.111106,
          3.824375 -0.021 -2.069664,
          3.863748 -0.021 -2.300849,
          3.910489 -0.021 -2.308928,
          3.886252 -0.021 -2.449151,
          3.839511 -0.021 -2.441072,
          3.920567 -0.021 -2.56543,
          3.947196 -0.021 -2.604684,
          3.829433 -0.021 -2.68457,
          3.802804 -0.021 -2.645316,
          3.80045 -0.021 -2.8832,
          3.81044 -0.021 -2.83683,
          3.94955 -0.021 -2.8668,
          3.93956 -0.021 -2.91317,
          3.945084 -0.021 -3.151707,
          3.915043 -0.021 -3.188416,
          3.804916 -0.021 -3.098293,
          3.834957 -0.021 -3.061584,
          3.886547 -0.021 -3.300894,
          3.928701 -0.021 -3.322643,
          3.863453 -0.021 -3.449106,
          3.821299 -0.021 -3.427357,
          3.857771 -0.021 -3.697994,
          3.81742 -0.021 -3.673058,
          3.892229 -0.021 -3.552006,
          3.93258 -0.021 -3.576942,
          3.878408 -0.021 -3.949923,
          3.832773 -0.021 -3.936983,
          3.871592 -0.021 -3.800077,
          3.917227 -0.021 -3.813017 
        ]
      }
    }
  }
}
DEF Cage Transform {
  translation 0 -0.022 0
  rotation 0 1 0 -1.5708
  children [
    DEF Pole1_bound Transform {
      translation 0.15 1.85 -0.15
      children Shape {
        appearance Appearance {
          material DEF P1C Material {
            transparency 1
            diffuseColor 1 0 0
          }
        }
        geometry DEF Pole1_box Box {
          size 0.3 3.7 0.3
        }
      }
    }
    DEF Pole2_bound Transform {
      translation 0.15 1.85 -3.85
      children Shape {
        appearance Appearance {
          material DEF P2C Material {
            transparency 1
            diffuseColor 1 0 0
          }
        }
        geometry DEF Pole2_box Box {
          size 0.3 3.7 0.3
        }
      }
    }
    DEF Pole3_bound Transform {
      translation 3.85 1.85 -3.85
      children Shape {
        appearance Appearance {
          material DEF P3C Material {
            transparency 1
            diffuseColor 1 0 0
          }
        }
        geometry DEF Pole3_box Box {
          size 0.3 3.7 0.3
        }
      }
    }
    DEF Pole4_bound Transform {
      translation 3.85 1.85 -0.15
      children Shape {
        appearance Appearance {
          material DEF P4C Material {
            transparency 1
            diffuseColor 1 0 0
          }
        }
        geometry DEF Pole4_box Box {
          size 0.3 3.7 0.3
        }
      }
    }
    DEF Pole5_bound Transform {
      translation 2 3.85 -0.15
      children Shape {
        appearance Appearance {
          material DEF P5C Material {
            transparency 1
            diffuseColor 1 0 0
          }
        }
        geometry DEF Pole5_box Box {
          size 4 0.3 0.3
        }
      }
    }
    DEF Pole6_bound Transform {
      translation 2 3.85 -3.85
      children Shape {
        appearance Appearance {
          material DEF P6C Material {
            transparency 1
            diffuseColor 1 0 0
          }
        }
        geometry DEF Pole6_box Box {
          size 4 0.3 0.3
        }
      }
    }
    DEF Pole7_bound Transform {
      translation 0.15 3.85 -2
      children Shape {
        appearance Appearance {
          material DEF P7C Material {
            transparency 1
            diffuseColor 1 0 0
          }
        }
        geometry DEF Pole7_box Box {
          size 0.3 0.3 3.4
        }
      }
    }
    DEF Pole8_bound Transform {
      translation 3.85 3.85 -2
      children Shape {
        appearance Appearance {
          material DEF P8C Material {
            transparency 1
            diffuseColor 1 0 0
          }
        }
        geometry DEF Pole8_box Box {
          size 0.3 0.3 3.4
        }
      }
    }
    DEF Edge1 Transform {
      translation 2 2 0.001
      children Shape {
        appearance Appearance {
          material DEF E1C Material {
            transparency 0.8
          }
        }
        geometry DEF Edge1_box Box {
          size 4 4 0.002
        }
      }
    }
    DEF Edge2 Transform {
      translation 2 2 -4.001
      children Shape {
        appearance Appearance {
          material DEF E2C Material {
            transparency 0.8
          }
        }
        geometry DEF Edge2_box Box {
          size 4 4 0.002
        }
      }
    }
    DEF Edge3 Transform {
      translation -0.001 2 -2
      children Shape {
        appearance Appearance {
          material DEF E3C Material {
            transparency 0.8
          }
        }
        geometry DEF Edge3_box Box {
          size 0.002 4 4
        }
      }
    }
    DEF Edge4 Transform {
      translation 4.001 2 -2
      children Shape {
        appearance Appearance {
          material DEF E4C Material {
            transparency 0.8
          }
        }
        geometry DEF Edge4_box Box {
          size 0.002 4 4
        }
      }
    }
    DEF Edge5 Transform {
      translation 2 4.001 -2
      children Shape {
        appearance Appearance {
          material DEF E5C Material {
            transparency 0.8
          }
        }
        geometry DEF Edge5_box Box {
          size 4 0.002 4
        }
      }
    }
    DEF Edge6 Transform {
      translation 2 -0.005 -2
      children Shape {
        appearance Appearance {
          material DEF E6C Material {
            transparency 0.8
          }
        }
        geometry DEF Edge6_box Box {
          size 4 0.002 4
        }
      }
    }
    DEF Pole1_pillar Gantry_pillar {
      scale_GP 1 1 0.925
      rot_GP 1 0 0 1.5708
      trans_GP 0 1.85 -0.3
    }
    DEF Pole2_pillar Gantry_pillar {
      scale_GP 1 1 0.925
      rot_GP 1 0 0 1.5708
      trans_GP 0 1.85 -4
    }
    DEF Pole3_pillar Gantry_pillar {
      scale_GP 1 1 0.925
      rot_GP 1 0 0 1.5708
      trans_GP 3.7 1.85 -4
    }
    DEF Pole4_pillar Gantry_pillar {
      scale_GP 1 1 0.925
      rot_GP 1 0 0 1.5708
      trans_GP 3.7 1.85 -0.3
    }
    DEF Pole5_pillar Gantry_pillar {
      rot_GP 0 1 0 1.5708
      trans_GP 2 3.7 0
    }
    DEF Pole6_pillar Gantry_pillar {
      rot_GP 0 1 0 1.5708
      trans_GP 2 3.7 -3.7
    }
    DEF Pole7_pillar Gantry_pillar {
      scale_GP 1 1 0.85
      trans_GP 0 3.7 -2
    }
    DEF Pole8_pillar Gantry_pillar {
      scale_GP 1 1 0.85
      trans_GP 3.7 3.7 -2
    }
  ]
}
DEF Static_Objects Transform {
  translation 0 -0.022 0
  rotation 0 1 0 -1.5708
  children [
    DEF Ground Shape {
      appearance Appearance {
        textureTransform TextureTransform {
          scale 50 50
        }
        texture ImageTexture {
          url "texture/gravel.jpg" 
        }
      }
      geometry IndexedFaceSet {
        coordIndex [
          3, 2, 1, 0, -1 
        ]
        colorPerVertex FALSE
        coord Coordinate {
          point [
            -105 -0.1 -105,
            125 -0.1 -105,
            125 -0.1 125,
            -105 -0.1 125 
          ]
        }
      }
    }
    DEF Floor Shape {
      appearance Appearance {
        textureTransform TextureTransform {
          scale 20 20
        }
        texture ImageTexture {
          url "*sl3dlib/objects/Textures/General/Granite.jpg" 
        }
        material DEF Area_Mat Material {
          shininess 0
          diffuseColor 0.37 0.5 0.33
          ambientIntensity 0.5
        }
      }
      geometry IndexedFaceSet {
        coordIndex [
          3, 2, 1, 0, -1 
        ]
        coord Coordinate {
          point [
            -1 0 1,
            -1 0 -5,
            5 0 -5,
            5 0 1 
          ]
        }
      }
    }
  ]
}
DEF QuadBody Transform {
  translation 0.41745 0.001765 2.3898
  scaleOrientation 0 1 0 0
  children [
    DEF UAV_Collision Transform {
      children [
        Shape {
          appearance Appearance {
            material Material {
              transparency 1
              diffuseColor 0.4 1 1
            }
          }
          geometry DEF UAV_Collision_Box Box {
            size 0.18 0.05 0.18
          }
        }
        DEF Collision_Sensor PrimitivePickSensor {
          intersectionType "GEOMETRY"
          pickingGeometry USE UAV_Collision_Box
          pickTarget USE Cage
        }
      ]
    }
    DEF Airframe Transform {
      scaleOrientation 1 0 0 0
      rotation 0 1 0 0
      children Inline {
        url "asbQuadcopterBody.wrl" 
      }
    }
    DEF Blade1 Transform {
      translation 0.0425 0.015 -0.0425
      children Inline {
        url "asbQuadcopterBladeCW.wrl" 
      }
    }
    DEF Blade3 Transform {
      translation -0.0425 0.015 0.0425
      children Inline {
        url "asbQuadcopterBladeCW.wrl" 
      }
    }
    DEF Blade2 Transform {
      translation -0.0425 0.015 -0.0425
      children Inline {
        url "asbQuadcopterBladeCCW.wrl" 
      }
    }
    DEF Blade4 Transform {
      translation 0.0425 0.015 0.0425
      children Inline {
        url "asbQuadcopterBladeCCW.wrl" 
      }
    }
    DEF Camera Viewpoint {
      description "Quadcopter Camera"
      position 0 -0.1 0
      orientation 1 0 0 -1.57
    }
    DEF OnQuad Viewpoint {
      description "Chase"
      position -1 0.25 0
      orientation 0 1 0 -1.57
    }
  ]
}
DEF IsoNoRotation Viewpoint {
  description "Isometric - No Rotation"
  position 1.31835 0.670765 3.3798
  orientation -0.46727 0.858698 0.210466 0.847752
}
DEF OnQuadNoRotation Viewpoint {
  description "Chase - No Rotation"
  position -2.58255 1.001765 2.3898
  orientation 0 -1 -0 1.57
}
DEF BlueMarker Transform {
  translation 0.5 -0.02 2
  rotation 0 0 0 0
  children Shape {
    appearance Appearance {
      material DEF LS_Mat_0001 Material {
        emissiveColor 0 0 1
        diffuseColor 0 0 1
      }
    }
    geometry Box {
      size 0.2 0.01 0.2
    }
  }
}